e08290a2eaf72d1565f4a77a5b9093f8 *tests/data/fate/generic-tags-remux-mov.mp4
10409 tests/data/fate/generic-tags-remux-mov.mp4
#extradata 0:        5, 0x03460155
#tb 0: 1/44100
#media_type 0: audio
#codec_id 0: aac
#sample_rate 0: 44100
#channel_layout_name 0: mono
0,      -1024,      -1024,     1024,      301, 0x55f88fe9, F=0x5, S=1, Skip Samples,       10, 0x00240004
0,          0,          0,     1024,      256, 0xc3a5940e
0,       1024,       1024,     1024,      176, 0xd3815b71
0,       2048,       2048,     1024,      177, 0x62f966c5
0,       3072,       3072,     1024,      193, 0x7c7163e8
0,       4096,       4096,     1024,      191, 0xe85963af
0,       5120,       5120,     1024,      206, 0x1d176e1b
0,       6144,       6144,     1024,      202, 0xfc0c7397
0,       7168,       7168,     1024,      193, 0xcdaa6231
0,       8192,       8192,     1024,      199, 0xd6996f2c
0,       9216,       9216,     1024,      169, 0x9fe25801
0,      10240,      10240,     1024,      221, 0xbd647673
0,      11264,      11264,     1024,      213, 0x7a226df8
0,      12288,      12288,     1024,      209, 0x0b3c66e8
0,      13312,      13312,     1024,      210, 0xb6486940
0,      14336,      14336,     1024,      193, 0x696b6712
0,      15360,      15360,     1024,      190, 0x4a0e699c
0,      16384,      16384,     1024,      204, 0x3ee5711e
0,      17408,      17408,     1024,      202, 0x07b86d33
0,      18432,      18432,     1024,      208, 0x34177110
0,      19456,      19456,     1024,      197, 0xb3246a57
0,      20480,      20480,     1024,      193, 0x21226896
0,      21504,      21504,     1024,      204, 0x83336b0c
0,      22528,      22528,     1024,      191, 0xa9826133
0,      23552,      23552,     1024,      199, 0xc7ee6600
0,      24576,      24576,     1024,      209, 0xf5bc6eec
0,      25600,      25600,     1024,      201, 0x66d67077
0,      26624,      26624,     1024,      214, 0x850e6e3b
0,      27648,      27648,     1024,      194, 0x64a563d9
0,      28672,      28672,     1024,      198, 0xa37b62f4
0,      29696,      29696,     1024,      200, 0x6b966513
0,      30720,      30720,     1024,      199, 0x818968ab
0,      31744,      31744,     1024,      210, 0xf718669f
0,      32768,      32768,     1024,      197, 0x4ca96421
0,      33792,      33792,     1024,      204, 0x62a66996
0,      34816,      34816,     1024,      200, 0x01756658
0,      35840,      35840,     1024,      190, 0xff44672d
0,      36864,      36864,     1024,      188, 0x20626595
0,      37888,      37888,     1024,      207, 0xd7f66ccb
0,      38912,      38912,     1024,      205, 0xb4b2685b
0,      39936,      39936,     1024,      206, 0x0bf26df6
0,      40960,      40960,     1024,      192, 0x72736037
0,      41984,      41984,     1024,      204, 0xb1c26c14
0,      43008,      43008,     1024,      252, 0x2b818d52
0,      44032,      44032,       68,        5, 0x03c001be
[FORMAT]
TAG:major_brand=isom
TAG:minor_version=512
TAG:compatible_brands=isomiso2mp41
TAG:title=Intro
TAG:artist=M83
TAG:album_artist=M83
TAG:composer=Anthony Gonzalez
TAG:album=Hurry Up, We're Dreaming
TAG:date=2011-10-17
TAG:comment=I love M83
TAG:genre=Electronic
TAG:copyright=2011 M83 Recording Inc
TAG:track=1/11
TAG:disc=1
TAG:disc_subtitle=Hurry Up
[/FORMAT]
